<svg width="32px" height="32px" xmlns="http://www.w3.org/2000/svg" viewBox="0 0 64 64"><path fill="#f7a1c8" d="M11,58c0,0,8-27,21-46c9,14,18,34,21,46l-5,1c0,0-11-31-16-38c-4,6-13,26-15,38L11,58z"/><path fill="#f283a5" d="M8,56l3,2c0,0,12-36,21-45c4,5,8,14,8,14L19,37l-4,10c0,0,23.341-3.764,32.341-4.764 C49.341,46.236,51,52,53,58c1,0,3-2,3-2S47,17,37,5c-8,0-10,0-10,0S15,21,8,56z"/><path fill="#ed7899" d="M17,59c0,0,1-7,4-12c0,7,0,10,0,10L17,59z"/><path fill="#ed7899" d="M43,57c0,0,0-11-1-14c0,0,5,13,5,16C45,58,43,57,43,57z"/><path fill="#8d6c9f" d="M47,60c-0.155,0-0.308-0.036-0.447-0.105l-4-2C42.214,57.725,42,57.379,42,57 c0-0.079-0.012-7.989-0.986-13.835l1.973-0.329c0.852,5.113,0.988,11.535,1.01,13.544l3.172,1.586l6.361-0.909l1.373-1.373 C53.849,51.17,46.199,19.37,36.495,6h-8.99C17.799,19.373,10.15,51.17,9.099,55.685l1.373,1.373l6.361,0.909l3.176-1.588 c0.033-1.532,0.196-5.689,1.005-10.542l1.973,0.329C22.011,52.015,22,56.951,22,57c0,0.379-0.214,0.725-0.553,0.895l-4,2 c-0.182,0.091-0.386,0.125-0.589,0.095l-7-1c-0.214-0.03-0.413-0.13-0.565-0.283l-2-2c-0.242-0.242-0.344-0.591-0.269-0.926 C7.361,54.278,15.396,18.806,26.2,4.4C26.389,4.148,26.685,4,27,4h10c0.315,0,0.611,0.148,0.8,0.4 c10.805,14.406,18.839,49.878,19.176,51.381c0.075,0.334-0.026,0.684-0.269,0.926l-2,2c-0.153,0.153-0.352,0.252-0.565,0.283l-7,1 C47.094,59.997,47.047,60,47,60z"/><path fill="#ed7899" d="M44.253,35C26.253,38.6,17,42,17,42l-2,5c3.833-0.809,29.484-4.369,32.341-4.764 C46.424,39.974,45.394,37.544,44.253,35z"/><path fill="#8d6c9f" d="M11.96,58.28l-1.92-0.56c0.07-0.242,7.201-24.39,21.116-46.257c0.367-0.576,1.32-0.576,1.688,0 c2.881,4.527,5.685,9.487,8.334,14.743c0.121,0.239,0.14,0.517,0.054,0.77c-0.085,0.254-0.27,0.462-0.51,0.58L19.609,37.816 C14.571,49.436,12.002,58.136,11.96,58.28z M32,13.879c-4.447,7.158-8.163,14.502-11.139,21.105l18.072-8.783 C36.711,21.852,34.385,17.717,32,13.879z"/><path fill="#8d6c9f" d="M53,59c-0.433,0-0.832-0.283-0.959-0.72c-0.028-0.098-2.856-9.71-8.374-22.142 c-1.192,0.242-2.344,0.482-3.457,0.72c-0.542,0.116-1.071-0.229-1.188-0.769c-0.115-0.54,0.229-1.072,0.769-1.188 c1.363-0.292,2.785-0.586,4.267-0.883c0.459-0.09,0.918,0.146,1.109,0.571c5.792,12.917,8.765,23.028,8.794,23.129 c0.155,0.53-0.15,1.085-0.68,1.24C53.187,58.987,53.092,59,53,59z"/><path fill="#8d6c9f" d="M31.999,38.71c-0.45,0-0.859-0.306-0.971-0.763c-0.131-0.537,0.198-1.078,0.734-1.209 c1.256-0.307,2.589-0.623,4-0.945c0.543-0.122,1.075,0.214,1.198,0.752c0.123,0.539-0.214,1.075-0.752,1.198 c-1.4,0.319-2.724,0.633-3.97,0.938C32.158,38.701,32.078,38.71,31.999,38.71z"/><path fill="#8d6c9f" d="M17,43c-0.407,0-0.79-0.25-0.938-0.655c-0.19-0.519,0.075-1.093,0.594-1.283 c0.153-0.057,3.837-1.402,11.091-3.306c0.533-0.142,1.081,0.179,1.221,0.713c0.14,0.534-0.179,1.081-0.713,1.221 c-7.148,1.876-10.873,3.235-10.909,3.248C17.231,42.98,17.115,43,17,43z"/><path fill="#8d6c9f" d="M15.207,47.979l-0.413-1.957c4.049-0.854,31.503-4.651,32.67-4.812l0.273,1.981 C47.452,43.23,19.187,47.139,15.207,47.979z"/><path fill="#8d6c9f" d="M26.594,52.208c-0.487,0-0.914-0.356-0.988-0.853l-0.293-1.978 c-0.081-0.546,0.296-1.055,0.842-1.136c0.551-0.081,1.055,0.296,1.136,0.842l0.293,1.978c0.081,0.546-0.296,1.055-0.842,1.136 C26.693,52.204,26.643,52.208,26.594,52.208z"/><path fill="#8d6c9f" d="M32.074,51.419c-0.488,0-0.916-0.358-0.988-0.856l-0.288-1.979c-0.08-0.546,0.299-1.054,0.846-1.134 c0.54-0.078,1.053,0.298,1.134,0.846l0.288,1.979c0.08,0.546-0.299,1.054-0.846,1.134C32.17,51.416,32.122,51.419,32.074,51.419z"/><path fill="#8d6c9f" d="M37.553,50.63c-0.49,0-0.917-0.36-0.989-0.859l-0.282-1.98c-0.078-0.547,0.302-1.053,0.849-1.131 c0.543-0.074,1.053,0.302,1.131,0.849l0.282,1.98c0.078,0.547-0.302,1.053-0.849,1.131C37.647,50.626,37.6,50.63,37.553,50.63z"/><path fill="#8d6c9f" d="M17.98,59.2l-1.96-0.4c0.011-0.055,1.144-5.553,3.598-13.035l1.9,0.623 C19.103,53.752,17.991,59.146,17.98,59.2z"/><path fill="#8d6c9f" d="M26.073,34.409l-1.832-0.803c2.13-4.857,4.457-9.279,6.916-13.144c0.367-0.576,1.32-0.576,1.688,0 c1.499,2.356,2.961,4.94,4.345,7.681l-1.785,0.901c-1.093-2.164-2.234-4.227-3.404-6.151C29.906,26.34,27.916,30.207,26.073,34.409 z"/><path fill="#8d6c9f" d="M46.02,59.2c-0.014-0.069-1.447-7.013-4.604-15.937l1.886-0.667 C46.507,51.66,47.965,58.73,47.98,58.8L46.02,59.2z"/></svg>